<mxfile host="app.diagrams.net" modified="2024-03-08T10:12:09.993Z" agent="Mozilla/5.0 (Windows NT 10.0; Win64; x64) AppleWebKit/537.36 (KHTML, like Gecko) Chrome/122.0.0.0 Safari/537.36" version="24.0.2" etag="bzRYZZVqr1dK9OGJgOT0" type="github">
  <diagram name="Page-1" id="Aum5P8UN7O2cvunYMUN6">
    <mxGraphModel>
      <root>
        <mxCell id="0" />
        <mxCell id="1" parent="0" />
      </root>
    </mxGraphModel>
  </diagram>
</mxfile>
